<?xml version="1.0" encoding="utf-8" ?>
<svg xmlns="http://www.w3.org/2000/svg" xmlns:xlink="http://www.w3.org/1999/xlink" width="32" height="32" viewBox="0 0 32 32">
	<defs>
		<clipPath id="clipPath8039658380">
			<path d="M0 0L32 0L32 32L0 32L0 0Z" fill-rule="nonzero" transform="matrix(1 0 0 1 0 0)"/>
		</clipPath>
	</defs>
	<g clip-path="url(#clipPath8039658380)">
		<path d="M0.1675 0L0 0.98625L22.7519 4.8625L22.9144 3.87563L0.1675 0ZM0.133125 3.62125L0.0343751 4.61625L22.7831 6.86875L22.8831 5.86875L0.133125 3.62125ZM12.7956 6.88125C12.6831 7.36875 12.3144 8.1 11.9019 8.81875C11.4019 9.68125 10.8331 10.4937 10.8331 11.3687C10.8331 12.5375 11.4456 13.3125 11.9581 13.8875C12.4706 14.4688 12.8331 14.8438 12.8331 15.3687C12.8331 15.725 12.6269 16.2937 12.3456 16.8687L13.4706 16.8687C13.6831 16.375 13.8331 15.8687 13.8331 15.3687C13.8331 14.4 13.1956 13.775 12.7081 13.225C12.2206 12.675 11.8331 12.2 11.8331 11.3687C11.8331 11.0625 12.2644 10.1937 12.7644 9.31875C13.2019 8.5625 13.6894 7.78125 13.8081 6.98125L12.7956 6.88125ZM15.2956 7.13125C15.1894 7.6 14.8269 8.26875 14.4081 8.93125C13.9081 9.73125 13.3331 10.4937 13.3331 11.3687C13.3331 12.5375 13.9456 13.3125 14.4581 13.8875C14.9706 14.4688 15.3331 14.8438 15.3331 15.3687C15.3331 15.725 15.1269 16.2937 14.8456 16.8687L15.9706 16.8687C16.1831 16.375 16.3331 15.8687 16.3331 15.3687C16.3331 14.4 15.6956 13.775 15.2081 13.225C14.7206 12.675 14.3331 12.2 14.3331 11.3687C14.3331 11.0625 14.7581 10.2687 15.2581 9.4625C15.6956 8.75625 16.1831 8.01875 16.3081 7.225L15.2956 7.13125ZM17.7956 7.375C17.6894 7.825 17.3331 8.43125 16.9206 9.04375C16.4206 9.78125 15.8331 10.4937 15.8331 11.3687C15.8331 12.5375 16.4456 13.3125 16.9581 13.8875C17.4706 14.4687 17.8331 14.8437 17.8331 15.3687C17.8331 15.725 17.6269 16.2937 17.3456 16.8687L18.4706 16.8687C18.6831 16.375 18.8331 15.8687 18.8331 15.3687C18.8331 14.4 18.1956 13.775 17.7081 13.225C17.2206 12.675 16.8331 12.2 16.8331 11.3687C16.8331 11.0625 17.2456 10.3438 17.7456 9.6C18.1831 8.95 18.6831 8.25625 18.8019 7.475L17.7956 7.375ZM1.35375 17.8687C1.45875 20.525 2.39125 22.6687 4.39 24.225C6.51438 25.875 9.90188 26.8687 14.8331 26.8687C19.7644 26.8687 23.1519 25.875 25.2769 24.225C27.2769 22.6688 28.2081 20.525 28.3144 17.8687L1.35375 17.8687ZM10.8331 27.8687L10.8331 28.8687L18.8331 28.8687L18.8331 27.8687L10.8331 27.8687Z" fill-rule="nonzero" transform="matrix(1 0 0 1 1.16688 1.63125)" fill="rgb(255, 107, 107)"/>
	</g>
</svg>
