<?xml version="1.0" encoding="utf-8" ?>
<svg xmlns="http://www.w3.org/2000/svg" xmlns:xlink="http://www.w3.org/1999/xlink" width="32" height="32" viewBox="0 0 32 32">
	<defs>
		<clipPath id="clipPath2150217953">
			<path d="M0 0L32 0L32 32L0 32L0 0Z" fill-rule="nonzero" transform="matrix(1 0 0 1 0 0)"/>
		</clipPath>
	</defs>
	<g clip-path="url(#clipPath2150217953)">
		<path d="M22.7467 29.32L24.96 29.32C26.08 29.32 27 28.4667 27.1333 27.3733L29.3333 5.4L22.6667 5.4L22.6667 0L20.04 0L20.04 5.4L13.4133 5.4L13.8133 8.52C16.0933 9.14667 18.2267 10.28 19.5067 11.5333C21.4267 13.4267 22.7467 15.3867 22.7467 18.5867L22.7467 29.32ZM1.27157e-06 27.9867L1.27157e-06 26.6667L20.04 26.6667L20.04 27.9867C20.04 28.72 19.44 29.32 18.6933 29.32L1.34667 29.32C0.600001 29.32 1.27157e-06 28.72 1.27157e-06 27.9867ZM0 18.6533C0 7.98667 20.04 7.98667 20.04 18.6533L0 18.6533ZM0.0266679 21.3333L20.0267 21.3333L20.0267 24L0.0266685 24L0.0266679 21.3333Z" fill-rule="nonzero" transform="matrix(1 0 0 1 1.33333 1.33333)" fill="rgb(78, 205, 196)"/>
	</g>
</svg>
