<?xml version="1.0" encoding="utf-8" ?>
<svg xmlns="http://www.w3.org/2000/svg" xmlns:xlink="http://www.w3.org/1999/xlink" width="32" height="32" viewBox="0 0 32 32">
	<defs>
		<clipPath id="clipPath0503994413">
			<path d="M0 0L32 0L32 32L0 32L0 0Z" fill-rule="nonzero" transform="matrix(1 0 0 1 0 0)"/>
		</clipPath>
	</defs>
	<g clip-path="url(#clipPath0503994413)">
		<path d="M14.374 3.88622e-05C7.71419 -0.0130861 1.13613 3.29629 1.6565 10.2534C10.3384 10.9658 18.9509 10.8092 27.5424 10.2947C28.2036 3.5641 21.2453 0.0136007 14.374 3.88622e-05ZM18.1163 1.49979C18.8141 1.49979 19.3798 1.77904 19.3798 2.12354C19.3798 2.4681 18.8141 2.74735 18.1163 2.74735C17.4184 2.74735 16.8527 2.4681 16.8527 2.1236C16.8527 1.77904 17.4184 1.49985 18.1163 1.49979ZM11.1255 2.73916C11.8233 2.73916 12.3891 3.01848 12.3891 3.36291C12.3891 3.70748 11.8233 3.98673 11.1255 3.98673C10.4277 3.98673 9.862 3.70748 9.86194 3.36298C9.86194 3.01848 10.4277 2.73923 11.1255 2.73916ZM22.2541 4.86541C22.9519 4.86541 23.5176 5.14466 23.5176 5.48916C23.5176 5.83366 22.9519 6.11291 22.2541 6.11291C21.5563 6.11291 20.9905 5.83366 20.9905 5.48916C20.9905 5.14466 21.5563 4.86541 22.2541 4.86541ZM5.15469 6.21135C5.8525 6.21135 6.41819 6.4906 6.41825 6.8351C6.41825 7.17966 5.8525 7.45885 5.15469 7.45885C4.45688 7.45885 3.89113 7.17966 3.89113 6.8351C3.89113 6.4906 4.45688 6.21135 5.15469 6.21135ZM24.7653 8.08904C25.4631 8.08904 26.0288 8.36829 26.0288 8.71279C26.0288 9.05729 25.4631 9.33654 24.7653 9.33654C24.0674 9.33654 23.5018 9.05729 23.5018 8.71279C23.5018 8.36829 24.0674 8.08904 24.7653 8.08904ZM16.1459 8.59185C16.8438 8.59185 17.4096 8.87123 17.4094 9.21573C17.4094 9.56023 16.8438 9.83948 16.1459 9.83948C15.4481 9.83948 14.8824 9.56023 14.8824 9.21573C14.8822 8.87116 15.448 8.59185 16.1459 8.59185ZM2.2895 11.4364C1.10425 11.4617 1.72525 12.9667 3.18844 12.9722C11.2231 13.6102 17.9805 13.5776 26.4458 12.821C27.4518 12.6517 28.0215 12.003 27.1223 11.4479C18.8986 11.9273 10.6341 12.0757 2.2895 11.4364ZM27.4785 13.9747C19.277 14.8247 10.1289 14.6325 3.09944 14.0937C0.163 13.7045 0.10725 17.0177 2.03606 17.363C11.1723 18.2794 19.0252 18.0339 27.9821 17.3299C29.5451 17.2584 28.8917 13.8719 27.4785 13.9747ZM0 21.0827L0.95825 21.6723C1.35462 21.1463 2.0755 19.6692 3.04069 19.6603C4.23581 19.6494 4.43725 22.1167 5.66444 22.1042C7.07737 22.09 8.02869 20.1325 8.94238 20.1741C10.323 20.2371 10.5882 22.4178 11.6647 22.4196C13.1703 22.4221 13.6296 20.1452 14.59 20.2112C15.9311 20.3034 16.6679 21.9783 17.7699 22.0348C18.9577 22.0957 19.6858 19.9707 20.474 19.9881C21.5121 20.011 22.2434 22.0168 23.864 22.0627C24.8231 22.0898 25.7199 19.7245 26.1768 19.7617C27.0779 19.8351 27.8361 21.046 28.4321 21.9389L29.3768 21.3279C28.6249 20.3144 27.4944 18.5512 26.0919 18.5768C24.7852 18.6007 24.4701 20.959 23.7105 20.9483C22.2555 20.9278 21.6007 18.938 20.4231 18.8642C19.2134 18.7883 18.5184 20.9664 17.7136 20.9122C16.5289 20.8323 16.0071 19.0897 14.6214 19.0423C13.3951 19.0005 12.4888 21.3967 11.6968 21.2951C10.5631 21.1497 10.4327 19.0215 8.9895 18.9303C7.79513 18.8549 6.64188 20.8431 5.84488 20.8053C4.74956 20.7532 4.26719 18.2913 3.00675 18.3062C1.64263 18.3223 0.560188 20.2024 0 21.0827ZM2.97206 23.3435C2.45069 23.3864 1.83469 23.6092 1.60644 24.12C1.45319 24.5364 2.80475 24.6549 2.92606 24.6635C10.9645 25.17 18.8232 25.1797 27.2886 24.5794C27.8651 24.5385 28.1595 24.3827 28.2418 24.3035C28.4371 23.7905 26.7938 23.4326 26.6282 23.4283C15.0651 23.3547 9.17463 23.5664 2.97206 23.3435ZM27.6943 25.668C19.7701 26.1028 9.9955 26.2545 2.18656 25.7122L2.21913 28.1291C10.7139 28.4177 19.4471 28.3785 27.6353 28.1236L27.6943 25.668Z" fill-rule="nonzero" transform="matrix(1 0 0 1 1.31163 1.83477)" fill="rgb(78, 205, 196)"/>
	</g>
</svg>
