<?xml version="1.0" encoding="utf-8" ?>
<svg xmlns="http://www.w3.org/2000/svg" xmlns:xlink="http://www.w3.org/1999/xlink" width="32" height="32" viewBox="0 0 32 32">
	<defs>
		<clipPath id="clipPath1721386235">
			<path d="M0 0L32 0L32 32L0 32L0 0Z" fill-rule="nonzero" transform="matrix(1 0 0 1 0 0)"/>
		</clipPath>
	</defs>
	<g clip-path="url(#clipPath1721386235)">
		<path d="M12.9937 0.950089C13.0437 1.24384 14 6.85634 14 9.00009C14 12.2688 12.2625 14.6001 9.69375 15.5376L10.5 30.4188C10.5437 31.2751 9.8625 32.0001 9 32.0001L5 32.0001C4.14375 32.0001 3.45625 31.2813 3.5 30.4188L4.30625 15.5376C1.73125 14.6001 0 12.2626 0 9.00009C0 6.85009 0.95625 1.24384 1.00625 0.950089C1.20625 -0.318661 3.8375 -0.337411 4 1.01884L4 9.84384C4.08125 10.0563 4.94375 10.0438 5 9.84384C5.0875 8.26259 5.49375 1.14384 5.5 0.981339C5.70625 -0.318661 8.29375 -0.318661 8.49375 0.981339C8.50625 1.15009 8.90625 8.26259 8.99375 9.84384C9.05 10.0438 9.91875 10.0563 9.99375 9.84384L9.99375 1.01884C10.1562 -0.331161 12.7937 -0.318661 12.9937 0.950089ZM20.4437 18.8063L19.5062 30.3751C19.4312 31.2501 20.125 32.0001 21 32.0001L24.5 32.0001C25.3312 32.0001 26 31.3313 26 30.5001L26 1.50009C26 0.675089 25.3312 8.92841e-05 24.5 8.92841e-05C19.3437 8.92841e-05 10.6625 11.1563 20.4437 18.8063Z" fill-rule="nonzero" transform="matrix(1 0 0 1 3 -8.92841e-05)" fill="rgb(255, 107, 107)"/>
	</g>
</svg>
