<?xml version="1.0" encoding="utf-8" ?>
<svg xmlns="http://www.w3.org/2000/svg" xmlns:xlink="http://www.w3.org/1999/xlink" width="32" height="32" viewBox="0 0 32 32">
	<defs>
		<clipPath id="clipPath8490138053">
			<path d="M0 0L32 0L32 32L0 32L0 0Z" fill-rule="nonzero" transform="matrix(1 0 0 1 0 0)"/>
		</clipPath>
	</defs>
	<g clip-path="url(#clipPath8490138053)">
		<path d="M10.9219 0.000231266C10.8031 0.000231266 10.6844 0.000231266 10.5656 0.00648117C9.99688 0.0239811 9.44063 0.0764811 8.89688 0.170856C8.09063 1.53711 8.25313 3.47898 8.84688 5.07086C10.3906 5.26461 12.0844 5.47711 13.7344 5.75836C13.4969 4.82086 13.3469 3.85836 13.5031 2.89148C13.6406 2.03336 14.0469 1.19211 14.7969 0.435231C13.6156 0.168356 12.2594 -0.00726867 10.9219 0.000231266ZM7.49688 0.522106C5.77813 1.10773 4.47188 2.23086 3.97188 4.27086C4.15188 4.33961 4.45938 4.42711 4.85313 4.50836C5.54688 4.64586 6.50938 4.77711 7.59688 4.91461C7.16563 3.51461 7.01563 1.93398 7.49688 0.522106ZM16.1031 0.780856C15.1344 1.51836 14.7469 2.26086 14.6156 3.07273C14.4719 3.93961 14.6719 4.93336 14.9594 5.98336C15.5469 6.10211 16.1156 6.22711 16.6594 6.37086C17.6906 6.63336 18.6469 6.96461 19.5094 7.32086C19.5844 6.59586 19.6906 5.80211 20.1406 5.04586C20.5344 4.38961 21.1844 3.80836 22.2094 3.36023C20.5781 2.29836 18.6906 1.45586 16.1031 0.780856ZM23.3156 4.14586C22.0281 4.55836 21.4344 5.07086 21.1031 5.62711C20.7469 6.22086 20.6781 6.95211 20.5844 7.78336C20.9344 7.94586 21.2656 8.11461 21.5719 8.27086C22.8594 8.93961 23.7156 9.52711 24.0906 9.85211L24.0844 9.85211C25.5219 11.0771 26.4594 10.8959 27.1344 10.3959C27.7594 9.92711 28.0594 9.00836 27.9906 8.54586C26.2906 6.79586 24.8906 5.34586 23.3156 4.14586ZM5.20938 5.71461C5.20938 5.97086 5.22188 6.22711 5.25313 6.46461C5.30938 6.89586 5.42188 7.26461 5.60938 7.54586C5.79688 7.82086 6.05313 8.03336 6.50313 8.17086C6.82188 8.27086 7.14688 8.37086 7.46562 8.46461C8.35938 8.33961 9.27187 8.28961 10.1656 8.29586C12.1531 8.30836 14.0531 8.62086 15.5031 9.06461C17.7406 9.63961 19.4969 10.4896 20.9969 11.5146C22.1094 11.5459 23.1656 11.4709 24.1469 11.2709C23.8844 11.1146 23.6219 10.9271 23.3594 10.7021L23.3531 10.7021C23.1344 10.5146 22.2781 9.90836 21.0531 9.27086C19.8281 8.62711 18.2094 7.93336 16.3719 7.45836C13.8719 6.80836 10.6281 6.43336 7.99062 6.10211C6.94062 5.97086 5.99687 5.84586 5.20938 5.71461ZM10.1594 9.42711C9.60313 9.42711 9.04688 9.44586 8.49687 9.48961C7.44063 11.1584 6.87187 12.8021 8.12187 15.4396C9.80937 15.6584 11.5844 15.9209 13.2219 16.2709C12.9969 15.1146 13.1344 14.0084 13.5594 12.9959C13.9781 11.9959 14.6656 11.0834 15.5281 10.2334C15.4219 10.2021 15.3156 10.1709 15.2094 10.1459L15.1969 10.1459L15.1844 10.1396C13.8594 9.73336 12.0469 9.44586 10.1594 9.42711ZM7.09688 9.66461C6.99063 9.68336 6.87813 9.70836 6.77188 9.72711C5.31563 10.0146 3.98313 10.5334 2.95938 11.3271C2.00625 12.0646 1.31875 13.0271 0.9975 14.3271C1.00625 14.3271 1.00375 14.3271 1.0125 14.3334C1.2075 14.4146 1.55 14.5084 1.98313 14.5959C2.84875 14.7709 4.0875 14.9334 5.49688 15.1084C5.92188 15.1584 6.37188 15.2146 6.82188 15.2709C5.96563 13.0271 6.32188 11.2084 7.09688 9.66461ZM16.7656 10.6146C15.7531 11.5271 15.0031 12.4646 14.5969 13.4334C14.1906 14.4084 14.1094 15.4021 14.4469 16.5521C14.5094 16.5646 14.5719 16.5834 14.6281 16.5959C16.4656 17.0771 17.9094 17.6209 19.0031 18.1396C19.0844 17.3834 19.3219 16.5459 19.9469 15.8521C20.5531 15.1771 21.4844 14.6771 22.8406 14.4709C22.6844 14.3271 22.5281 14.1771 22.3656 14.0334C20.8031 12.6271 19.1094 11.4459 16.7656 10.6146ZM23.8906 15.5021C22.1844 15.5709 21.2906 16.0459 20.7844 16.6021C20.2594 17.1896 20.1094 17.9584 20.0906 18.7084C20.8156 19.1209 21.3031 19.4771 21.5844 19.7209C23.1156 21.0334 24.9094 21.2334 26.2469 20.9396C26.9156 20.7896 27.4594 20.5084 27.7719 20.2334C28.0031 20.0209 28.0844 19.8646 28.0906 19.7334C26.4906 18.2646 25.1844 16.8209 23.8906 15.5021ZM2.51375 15.8334C2.54563 16.0459 2.5875 16.2521 2.64313 16.4521C2.88688 17.3271 3.3 17.9646 4.32188 18.2771C8.82812 19.6646 13.1656 21.1709 16.9906 21.7771C19.1594 22.1209 21.1469 22.1834 22.9219 21.7896C22.2156 21.5334 21.5094 21.1396 20.8469 20.5709C20.3031 20.1021 18.3156 18.7146 14.3406 17.6834C11.6594 16.9834 8.18437 16.5771 5.35312 16.2271C4.29562 16.0896 3.32687 15.9646 2.51375 15.8334ZM2.12 20.1021C1.19125 20.1396 0.291875 21.0021 0 21.5396C0.669375 21.9271 2.55062 22.1646 3.3525 20.6834C2.995 20.2709 2.59562 20.1084 2.19938 20.1021L2.12 20.1021ZM4.34062 21.5959C3.09687 21.6396 2.6775 24.3459 3.36937 24.8521C4.08062 24.9396 5.47812 22.2459 4.59062 21.6209C4.52812 21.6021 4.45937 21.5959 4.39687 21.5959L4.34062 21.5959ZM9.73438 22.3021C9.50313 22.3021 9.30313 22.3646 9.16562 22.5146C8.64062 23.8959 11.5969 24.7959 12.2219 24.1271C12.3656 23.5646 10.7406 22.3209 9.73438 22.3021ZM14.3781 24.6521C13.3781 24.6396 11.8406 25.1334 11.8781 25.9146C12.4719 27.2646 15.2094 25.8209 15.1781 24.9084C15.0781 24.7396 14.7719 24.6584 14.3781 24.6521Z" fill-rule="nonzero" transform="matrix(1 0 0 1 1.95312 2.76664)" fill="rgb(255, 107, 107)"/>
	</g>
</svg>
